<svg width="106" height="23" viewBox="0 0 106 23" fill="none" xmlns="http://www.w3.org/2000/svg">
<path d="M105.006 0.844963C105.006 0.844963 98.249 0.731073 93.3517 1.60423C91.4536 1.9459 91.4156 2.3635 91.4156 3.27462V12.6516C91.4156 12.8414 91.6434 12.9932 91.9851 12.9932H93.8453C94.187 12.9932 94.3768 12.8414 94.3768 12.6516V8.20985L104.209 8.05799C104.475 8.05799 104.665 7.9441 104.665 7.79225V6.95706C104.665 6.8052 104.475 6.69131 104.209 6.69131L94.3768 6.84317V2.93294C98.4768 2.17368 105.044 2.2496 105.044 2.2496C105.31 2.2496 105.5 2.13572 105.5 1.98386V1.14867C105.462 0.958854 105.272 0.844963 105.006 0.844963ZM71.6367 6.95706C71.6367 3.61629 70.1941 0.844963 62.5256 0.844963C54.8949 0.844963 53.4144 3.61629 53.4144 6.95706C53.4144 10.2599 54.8949 13.0312 62.5256 13.0312C70.1941 12.9932 71.6367 10.2599 71.6367 6.95706ZM68.5997 6.95706C68.5997 9.72838 67.8025 11.6265 62.5256 11.6265C57.2487 11.6265 56.4514 9.76634 56.4514 6.95706C56.4514 4.14777 57.2487 2.28757 62.5256 2.28757C67.8025 2.24961 68.5997 4.14777 68.5997 6.95706ZM87.2776 11.5127L83.0637 11.6645C80.7479 11.6265 78.8118 11.3228 78.3562 11.2469V1.2246C78.3562 0.92089 78.2803 0.844963 77.9766 0.844963H75.8886C75.6229 0.844963 75.471 0.958853 75.471 1.2246V10.8293C75.471 11.7404 75.471 12.234 78.0146 12.6516C82.1146 13.2969 87.2397 12.8793 87.2397 12.8793C87.5054 12.8793 87.6952 12.7654 87.6952 12.6136V11.7784C87.7711 11.6265 87.5813 11.5127 87.2776 11.5127ZM50.3014 6.76724C50.2634 2.74313 48.1754 0.844963 41.1902 0.844963C38.5327 0.844963 37.0522 1.03478 35.8753 1.2246C33.3318 1.60423 33.3318 2.21164 33.3318 3.04684V10.8293C33.3318 11.6645 33.3318 12.2719 35.8753 12.6516C37.0901 12.8414 38.5327 13.0312 41.1902 13.0312C48.2514 13.0312 50.3014 11.0951 50.3014 6.91909V6.76724ZM47.3023 6.76724C47.3023 6.8052 47.3023 6.88113 47.3023 6.91909C47.3023 11.0951 44.7967 11.5886 41.0763 11.5886C38.6846 11.5886 36.6346 11.2469 36.179 11.171V2.62924C36.6346 2.55331 38.6466 2.21164 41.0763 2.21164C44.7587 2.21164 47.2643 2.70517 47.3023 6.76724ZM28.8521 8.39966V1.2246C28.8521 0.92089 28.7762 0.844963 28.4345 0.844963H26.2706C25.9289 0.844963 25.891 1.07275 25.891 1.26256V8.55151C25.891 10.2219 25.5113 11.6265 20.7659 11.6265C16.8177 11.6265 15.6029 10.7154 15.6029 8.62744V1.26256C15.6029 0.958855 15.527 0.844963 15.2233 0.844963H13.0973C12.8316 0.844963 12.7177 0.92089 12.7177 1.2246V8.43762C12.7177 11.3608 14.3122 12.9932 20.728 12.9932C28.3586 12.9932 28.8521 10.5636 28.8521 8.39966ZM9.60472 2.09775V1.18664C9.60472 0.88293 9.26304 0.844963 9.11119 0.844963H8.20008C6.45376 0.844963 3.15096 1.14867 1.5565 1.56627C0.303709 1.90794 0 2.21164 0 3.16073V12.6516C0 12.8414 0.189818 12.9932 0.493524 12.9932H2.35373C2.6954 12.9932 2.84725 12.8414 2.84725 12.6516V2.78109C4.89727 2.47739 6.87136 2.36349 9.26305 2.36349C9.52879 2.40146 9.60472 2.21164 9.60472 2.09775Z" fill="black"/>
<path d="M87.1787 16.3895H88.2416L87.1787 22.0081H86.1157L87.1787 16.3895ZM83.9138 21.4007L84.1036 20.3377H83.4962C83.1925 20.3377 83.0027 20.3756 82.8508 20.4516C82.699 20.5275 82.5851 20.6794 82.5471 20.9071V21.059C82.5471 21.1729 82.5851 21.2488 82.6231 21.2868C82.661 21.3627 82.7369 21.4007 82.8129 21.4007C82.8888 21.4386 82.9647 21.4386 83.0407 21.4386C83.1166 21.4386 83.1925 21.4386 83.3064 21.4386C83.4962 21.4386 83.686 21.4386 83.9138 21.4007ZM85.3564 19.3127L84.8629 22.0081C84.3314 22.084 83.7999 22.122 83.3064 22.122H83.0407C82.8129 22.122 82.661 22.122 82.5092 22.084C82.3573 22.046 82.2055 22.0081 82.0156 21.9701C81.8258 21.8942 81.7119 21.8183 81.598 21.6664C81.5221 21.5145 81.4462 21.3627 81.4462 21.1729C81.4462 20.9071 81.4842 20.6794 81.598 20.4895C81.7119 20.2997 81.8258 20.1479 81.9777 20.034C82.1295 19.9201 82.3193 19.8442 82.5471 19.8062C82.7749 19.7303 83.0027 19.6923 83.1925 19.6923C83.3823 19.6923 83.6101 19.6543 83.8758 19.6543H84.2555L84.2934 19.4266C84.2934 19.3506 84.3314 19.2747 84.3314 19.1988C84.3314 19.0849 84.2934 19.009 84.2555 18.933C84.2175 18.8571 84.1416 18.8192 84.0277 18.8192C83.9138 18.7812 83.8379 18.7812 83.762 18.7812C83.686 18.7812 83.6101 18.7812 83.4962 18.7812C83.0406 18.7812 82.5851 18.8192 82.1675 18.933L82.3193 18.1738C82.7369 18.0599 83.2305 18.0219 83.724 18.0219C83.8758 18.0219 83.9897 18.0219 84.1036 18.0219C84.2175 18.0219 84.3314 18.0219 84.4833 18.0599C84.6351 18.0979 84.749 18.0979 84.8629 18.1738C84.9768 18.2117 85.0527 18.2877 85.1666 18.3256C85.2805 18.4016 85.3184 18.4775 85.3944 18.5914C85.4323 18.7053 85.4703 18.8571 85.4703 18.971C85.3944 19.0849 85.3944 19.1608 85.3564 19.3127ZM81.3323 18.1358L81.1804 18.8571C80.9147 18.8191 80.6869 18.8192 80.4591 18.8192C79.9656 18.8192 79.586 18.933 79.2823 19.1229C79.0165 19.3127 78.8267 19.6543 78.7508 20.1099C78.7128 20.2618 78.7128 20.3756 78.7128 20.4895C78.7128 20.6794 78.7508 20.8312 78.8267 20.9451C78.9027 21.059 78.9786 21.1729 79.1304 21.2108C79.2443 21.2868 79.3962 21.3247 79.5101 21.3247C79.6619 21.3627 79.8138 21.3627 79.9656 21.3627C80.1934 21.3627 80.4592 21.3247 80.7249 21.2868L80.573 22.0081C80.2314 22.084 79.8517 22.122 79.4341 22.122C78.9027 22.122 78.4471 21.9701 78.1054 21.7044C77.7638 21.4386 77.5739 21.021 77.5739 20.4895C77.5739 19.7682 77.8397 19.1608 78.3332 18.6673C78.8267 18.2117 79.4341 17.946 80.1934 17.946C80.649 18.0219 81.0286 18.0599 81.3323 18.1358ZM76.2832 16.3895H77.3462L77.1563 17.3765H76.0934L76.2832 16.3895ZM75.9795 18.0978H77.0424L76.2832 22.046H75.2202L75.9795 18.0978ZM73.0183 21.2868L73.4739 18.8192C73.322 18.7812 73.1322 18.7812 72.9045 18.7812C72.5248 18.7812 72.2591 18.8951 72.0313 19.1608C71.8415 19.3886 71.6896 19.7303 71.6137 20.1099C71.5757 20.2618 71.5757 20.3756 71.5757 20.4895C71.5757 20.7553 71.6517 20.9831 71.7656 21.1349C71.9174 21.2868 72.1072 21.3627 72.335 21.3627C72.5628 21.3247 72.7526 21.3247 73.0183 21.2868ZM73.9295 16.3895H74.9924L73.9295 21.9321C73.4739 22.046 72.9804 22.084 72.373 22.084C71.8415 22.084 71.3859 21.9701 71.0443 21.7044C70.7026 21.4386 70.5128 21.059 70.5128 20.5275C70.5128 19.8062 70.7405 19.2368 71.2341 18.7432C71.6896 18.2497 72.297 18.0219 72.9804 18.0219C73.1702 18.0219 73.36 18.0219 73.6258 18.0599L73.9295 16.3895ZM67.0201 19.6923H68.6526C68.6905 19.5405 68.6905 19.4266 68.6905 19.3127C68.6905 18.8951 68.4627 18.6673 68.0452 18.6673C67.7794 18.6673 67.5516 18.7812 67.3618 18.971C67.21 19.1608 67.0961 19.4266 67.0201 19.6923ZM69.6776 20.3756H66.9063V20.5655C66.9063 21.1349 67.2859 21.4386 68.0831 21.4386C68.3868 21.4386 68.7664 21.4007 69.222 21.2868L69.1081 21.9701C68.7665 22.084 68.2729 22.122 67.7035 22.122C67.134 22.122 66.6785 22.0081 66.3368 21.7803C65.9951 21.5525 65.8433 21.1729 65.8433 20.6414C65.8433 19.8821 66.0711 19.2747 66.5266 18.7812C66.9822 18.2877 67.5516 18.0219 68.2729 18.0219C68.8044 18.0219 69.184 18.1358 69.4498 18.3256C69.7155 18.5534 69.8294 18.8951 69.8294 19.3886C69.7915 19.6923 69.7535 19.996 69.6776 20.3756ZM64.9701 19.2747L64.4386 22.046H63.3757L63.8692 19.4645V19.3127C63.8692 19.0469 63.7173 18.8951 63.4136 18.8951C63.1099 18.8951 62.8821 18.933 62.6164 19.0469L62.0469 22.046H60.984L61.4775 19.4645V19.2747C61.4775 19.009 61.3256 18.8571 61.0219 18.8571C60.8321 18.8571 60.6043 18.8951 60.3006 19.009L59.7312 22.0081H58.6682L59.3515 18.4395C59.9969 18.2877 60.7942 18.0219 61.3256 18.0219C61.4775 18.0219 61.9331 18.0219 62.0849 18.0978C62.2368 18.1738 62.3507 18.2497 62.4266 18.4016C63.034 18.1358 63.5275 17.984 63.8692 17.984C64.1729 17.984 64.4386 18.0599 64.6285 18.2117C64.8183 18.3636 64.9322 18.5914 64.9322 18.8951C65.0081 19.0849 64.9701 19.1988 64.9701 19.2747ZM104.718 17.1108L103.807 21.9321C102.857 22.046 101.908 22.122 101.035 22.122H100.58C100.2 22.122 99.8964 22.122 99.5926 22.084C99.3269 22.046 99.0232 21.9701 98.7195 21.8562C98.4158 21.7423 98.15 21.5905 97.9982 21.3247C97.8463 21.0969 97.7324 20.7932 97.7324 20.4136C97.7324 19.9201 97.8084 19.5405 97.9982 19.1608C98.188 18.8192 98.4158 18.5534 98.6815 18.3636C98.9473 18.1738 99.2889 18.0219 99.7065 17.908C100.124 17.7941 100.504 17.7182 100.845 17.7182C101.187 17.6803 101.605 17.6803 102.06 17.6803H102.744L102.82 17.2627C102.857 17.1108 102.857 16.959 102.857 16.8451C102.857 16.6552 102.82 16.5034 102.706 16.3895C102.63 16.2756 102.478 16.1997 102.288 16.1617C102.098 16.1238 101.946 16.0858 101.832 16.0858C101.719 16.0858 101.529 16.0478 101.339 16.0478C100.504 16.0478 99.7065 16.1238 98.9473 16.3136L99.213 14.9849C99.9723 14.833 100.807 14.7191 101.719 14.7191C101.984 14.7191 102.212 14.7191 102.402 14.7191C102.592 14.7191 102.82 14.7571 103.085 14.795C103.351 14.833 103.579 14.871 103.769 14.9849C103.958 15.0608 104.148 15.1747 104.3 15.2886C104.452 15.4025 104.604 15.5923 104.68 15.7821C104.756 15.9719 104.832 16.2376 104.832 16.5034C104.794 16.6173 104.756 16.8451 104.718 17.1108ZM102.136 20.7932L102.516 18.8951H101.415C100.883 18.8951 100.504 18.971 100.276 19.0849C100.01 19.2367 99.8204 19.5025 99.7825 19.8821L99.7445 20.1479C99.7445 20.2997 99.7825 20.4516 99.8584 20.5655C99.9343 20.6794 100.048 20.7553 100.2 20.7932C100.352 20.8312 100.504 20.8692 100.58 20.8692C100.694 20.8692 100.845 20.8692 101.035 20.8692C101.377 20.8692 101.757 20.8692 102.136 20.7932ZM97.4667 18.971H92.4935L92.4556 19.3127C92.4556 20.3756 93.1389 20.9071 94.5435 20.9071C95.075 20.9071 95.7584 20.8312 96.5935 20.6794L96.3658 21.8942C95.7204 22.084 94.8852 22.1599 93.8602 22.1599C92.8352 22.1599 92.0379 21.9321 91.4305 21.5145C90.8231 21.0969 90.5194 20.4136 90.5194 19.4645C90.5194 18.1358 90.8991 16.9969 91.6963 16.0858C92.4935 15.1747 93.5565 14.7571 94.8472 14.7571C95.7584 14.7571 96.4797 14.9469 96.9352 15.3265C97.4287 15.7062 97.6565 16.3515 97.6565 17.2627C97.6565 17.7182 97.5806 18.2877 97.4667 18.971ZM92.7213 17.7562H95.6445C95.6824 17.4525 95.7204 17.2627 95.7204 17.1108C95.7204 16.3515 95.3408 15.9719 94.5435 15.9719C94.05 15.9719 93.6324 16.1238 93.3287 16.4654C93.025 16.8071 92.8352 17.2627 92.7213 17.7562Z" fill="black"/>
</svg>
