<svg width="106" height="22" viewBox="0 0 106 22" fill="none" xmlns="http://www.w3.org/2000/svg">
<path d="M105.256 0.344933C105.256 0.344933 98.499 0.231043 93.6017 1.1042C91.7036 1.44587 91.6656 1.86347 91.6656 2.77459V12.1515C91.6656 12.3413 91.8934 12.4932 92.2351 12.4932H94.0953C94.437 12.4932 94.6268 12.3413 94.6268 12.1515V7.70982L104.459 7.55796C104.725 7.55796 104.915 7.44407 104.915 7.29222V6.45703C104.915 6.30517 104.725 6.19128 104.459 6.19128L94.6268 6.34313V2.43291C98.7268 1.67365 105.294 1.74957 105.294 1.74957C105.56 1.74957 105.75 1.63568 105.75 1.48383V0.64864C105.712 0.458824 105.522 0.344933 105.256 0.344933ZM71.8867 6.45703C71.8867 3.11626 70.4441 0.344933 62.7756 0.344933C55.1449 0.344933 53.6644 3.11626 53.6644 6.45703C53.6644 9.75983 55.1449 12.5312 62.7756 12.5312C70.4441 12.4932 71.8867 9.75983 71.8867 6.45703ZM68.8497 6.45703C68.8497 9.22835 68.0525 11.1265 62.7756 11.1265C57.4987 11.1265 56.7014 9.26631 56.7014 6.45703C56.7014 3.64774 57.4987 1.78754 62.7756 1.78754C68.0525 1.74958 68.8497 3.64774 68.8497 6.45703ZM87.5276 11.0126L83.3137 11.1645C80.9979 11.1265 79.0618 10.8228 78.6062 10.7469V0.724566C78.6062 0.420859 78.5303 0.344933 78.2266 0.344933H76.1386C75.8729 0.344933 75.721 0.458822 75.721 0.724566V10.3293C75.721 11.2404 75.721 11.7339 78.2646 12.1515C82.3646 12.7969 87.4897 12.3793 87.4897 12.3793C87.7554 12.3793 87.9452 12.2654 87.9452 12.1136V11.2784C88.0211 11.1265 87.8313 11.0126 87.5276 11.0126ZM50.5514 6.26721C50.5134 2.2431 48.4254 0.344933 41.4402 0.344933C38.7827 0.344933 37.3022 0.534749 36.1253 0.724566C33.5818 1.1042 33.5818 1.71161 33.5818 2.5468V10.3293C33.5818 11.1645 33.5818 11.7719 36.1253 12.1515C37.3401 12.3413 38.7827 12.5312 41.4402 12.5312C48.5014 12.5312 50.5514 10.595 50.5514 6.41906V6.26721ZM47.5523 6.26721C47.5523 6.30517 47.5523 6.3811 47.5523 6.41906C47.5523 10.595 45.0467 11.0885 41.3263 11.0885C38.9346 11.0885 36.8846 10.7469 36.429 10.6709V2.12921C36.8846 2.05328 38.8966 1.71161 41.3263 1.71161C45.0087 1.71161 47.5143 2.20514 47.5523 6.26721ZM29.1021 7.89963V0.724566C29.1021 0.420859 29.0262 0.344933 28.6845 0.344933H26.5206C26.1789 0.344933 26.141 0.572715 26.141 0.762531V8.05148C26.141 9.72187 25.7613 11.1265 21.0159 11.1265C17.0677 11.1265 15.8529 10.2154 15.8529 8.12741V0.762531C15.8529 0.458825 15.777 0.344933 15.4733 0.344933H13.3473C13.0816 0.344933 12.9677 0.420859 12.9677 0.724566V7.93759C12.9677 10.8608 14.5622 12.4932 20.978 12.4932C28.6086 12.4932 29.1021 10.0635 29.1021 7.89963ZM9.85472 1.59772V0.686606C9.85472 0.382899 9.51304 0.344933 9.36119 0.344933H8.45008C6.70376 0.344933 3.40096 0.648642 1.8065 1.06624C0.553709 1.40791 0.25 1.71161 0.25 2.6607V12.1515C0.25 12.3413 0.439818 12.4932 0.743524 12.4932H2.60373C2.9454 12.4932 3.09725 12.3413 3.09725 12.1515V2.28106C5.14727 1.97736 7.12136 1.86346 9.51305 1.86346C9.77879 1.90143 9.85472 1.71161 9.85472 1.59772Z" fill="black"/>
<path d="M87.4287 15.8895H88.4916L87.4287 21.5081H86.3657L87.4287 15.8895ZM84.1638 20.9007L84.3536 19.8377H83.7462C83.4425 19.8377 83.2527 19.8756 83.1008 19.9516C82.949 20.0275 82.8351 20.1794 82.7971 20.4071V20.559C82.7971 20.6729 82.8351 20.7488 82.8731 20.7868C82.911 20.8627 82.9869 20.9007 83.0629 20.9007C83.1388 20.9386 83.2147 20.9386 83.2907 20.9386C83.3666 20.9386 83.4425 20.9386 83.5564 20.9386C83.7462 20.9386 83.936 20.9386 84.1638 20.9007ZM85.6064 18.8127L85.1129 21.5081C84.5814 21.584 84.0499 21.622 83.5564 21.622H83.2907C83.0629 21.622 82.911 21.622 82.7592 21.584C82.6073 21.546 82.4555 21.5081 82.2656 21.4701C82.0758 21.3942 81.9619 21.3183 81.848 21.1664C81.7721 21.0145 81.6962 20.8627 81.6962 20.6729C81.6962 20.4071 81.7342 20.1794 81.848 19.9895C81.9619 19.7997 82.0758 19.6479 82.2277 19.534C82.3795 19.4201 82.5693 19.3442 82.7971 19.3062C83.0249 19.2303 83.2527 19.1923 83.4425 19.1923C83.6323 19.1923 83.8601 19.1543 84.1258 19.1543H84.5055L84.5434 18.9266C84.5434 18.8506 84.5814 18.7747 84.5814 18.6988C84.5814 18.5849 84.5434 18.509 84.5055 18.433C84.4675 18.3571 84.3916 18.3192 84.2777 18.3192C84.1638 18.2812 84.0879 18.2812 84.012 18.2812C83.936 18.2812 83.8601 18.2812 83.7462 18.2812C83.2906 18.2812 82.8351 18.3192 82.4175 18.433L82.5693 17.6738C82.9869 17.5599 83.4805 17.5219 83.974 17.5219C84.1258 17.5219 84.2397 17.5219 84.3536 17.5219C84.4675 17.5219 84.5814 17.5219 84.7333 17.5599C84.8851 17.5979 84.999 17.5979 85.1129 17.6738C85.2268 17.7117 85.3027 17.7877 85.4166 17.8256C85.5305 17.9016 85.5684 17.9775 85.6444 18.0914C85.6823 18.2053 85.7203 18.3571 85.7203 18.471C85.6444 18.5849 85.6444 18.6608 85.6064 18.8127ZM81.5823 17.6358L81.4304 18.3571C81.1647 18.3191 80.9369 18.3192 80.7091 18.3192C80.2156 18.3192 79.836 18.433 79.5323 18.6229C79.2665 18.8127 79.0767 19.1543 79.0008 19.6099C78.9628 19.7618 78.9628 19.8756 78.9628 19.9895C78.9628 20.1794 79.0008 20.3312 79.0767 20.4451C79.1527 20.559 79.2286 20.6729 79.3804 20.7108C79.4943 20.7868 79.6462 20.8247 79.7601 20.8247C79.9119 20.8627 80.0638 20.8627 80.2156 20.8627C80.4434 20.8627 80.7092 20.8247 80.9749 20.7868L80.823 21.5081C80.4814 21.584 80.1017 21.622 79.6841 21.622C79.1527 21.622 78.6971 21.4701 78.3554 21.2044C78.0138 20.9386 77.8239 20.521 77.8239 19.9895C77.8239 19.2682 78.0897 18.6608 78.5832 18.1673C79.0767 17.7117 79.6841 17.446 80.4434 17.446C80.899 17.5219 81.2786 17.5599 81.5823 17.6358ZM76.5332 15.8895H77.5962L77.4063 16.8765H76.3434L76.5332 15.8895ZM76.2295 17.5978H77.2924L76.5332 21.546H75.4702L76.2295 17.5978ZM73.2683 20.7868L73.7239 18.3192C73.572 18.2812 73.3822 18.2812 73.1545 18.2812C72.7748 18.2812 72.5091 18.3951 72.2813 18.6608C72.0915 18.8886 71.9396 19.2303 71.8637 19.6099C71.8257 19.7618 71.8257 19.8756 71.8257 19.9895C71.8257 20.2553 71.9017 20.4831 72.0156 20.6349C72.1674 20.7868 72.3572 20.8627 72.585 20.8627C72.8128 20.8247 73.0026 20.8247 73.2683 20.7868ZM74.1795 15.8895H75.2424L74.1795 21.4321C73.7239 21.546 73.2304 21.584 72.623 21.584C72.0915 21.584 71.6359 21.4701 71.2943 21.2044C70.9526 20.9386 70.7628 20.559 70.7628 20.0275C70.7628 19.3062 70.9905 18.7368 71.4841 18.2432C71.9396 17.7497 72.547 17.5219 73.2304 17.5219C73.4202 17.5219 73.61 17.5219 73.8758 17.5599L74.1795 15.8895ZM67.2701 19.1923H68.9026C68.9405 19.0405 68.9405 18.9266 68.9405 18.8127C68.9405 18.3951 68.7127 18.1673 68.2952 18.1673C68.0294 18.1673 67.8016 18.2812 67.6118 18.471C67.46 18.6608 67.3461 18.9266 67.2701 19.1923ZM69.9276 19.8756H67.1563V20.0655C67.1563 20.6349 67.5359 20.9386 68.3331 20.9386C68.6368 20.9386 69.0164 20.9007 69.472 20.7868L69.3581 21.4701C69.0165 21.584 68.5229 21.622 67.9535 21.622C67.384 21.622 66.9285 21.5081 66.5868 21.2803C66.2451 21.0525 66.0933 20.6729 66.0933 20.1414C66.0933 19.3821 66.3211 18.7747 66.7766 18.2812C67.2322 17.7877 67.8016 17.5219 68.5229 17.5219C69.0544 17.5219 69.434 17.6358 69.6998 17.8256C69.9655 18.0534 70.0794 18.3951 70.0794 18.8886C70.0415 19.1923 70.0035 19.496 69.9276 19.8756ZM65.2201 18.7747L64.6886 21.546H63.6257L64.1192 18.9645V18.8127C64.1192 18.5469 63.9673 18.3951 63.6636 18.3951C63.3599 18.3951 63.1321 18.433 62.8664 18.5469L62.2969 21.546H61.234L61.7275 18.9645V18.7747C61.7275 18.509 61.5756 18.3571 61.2719 18.3571C61.0821 18.3571 60.8543 18.3951 60.5506 18.509L59.9812 21.5081H58.9182L59.6015 17.9395C60.2469 17.7877 61.0442 17.5219 61.5756 17.5219C61.7275 17.5219 62.1831 17.5219 62.3349 17.5978C62.4868 17.6738 62.6007 17.7497 62.6766 17.9016C63.284 17.6358 63.7775 17.484 64.1192 17.484C64.4229 17.484 64.6886 17.5599 64.8785 17.7117C65.0683 17.8636 65.1822 18.0914 65.1822 18.3951C65.2581 18.5849 65.2201 18.6988 65.2201 18.7747ZM104.968 16.6108L104.057 21.4321C103.107 21.546 102.158 21.622 101.285 21.622H100.83C100.45 21.622 100.146 21.622 99.8426 21.584C99.5769 21.546 99.2732 21.4701 98.9695 21.3562C98.6658 21.2423 98.4 21.0905 98.2482 20.8247C98.0963 20.5969 97.9824 20.2932 97.9824 19.9136C97.9824 19.4201 98.0584 19.0405 98.2482 18.6608C98.438 18.3192 98.6658 18.0534 98.9315 17.8636C99.1973 17.6738 99.5389 17.5219 99.9565 17.408C100.374 17.2941 100.754 17.2182 101.095 17.2182C101.437 17.1803 101.855 17.1803 102.31 17.1803H102.994L103.07 16.7627C103.107 16.6108 103.107 16.459 103.107 16.3451C103.107 16.1552 103.07 16.0034 102.956 15.8895C102.88 15.7756 102.728 15.6997 102.538 15.6617C102.348 15.6238 102.196 15.5858 102.082 15.5858C101.969 15.5858 101.779 15.5478 101.589 15.5478C100.754 15.5478 99.9565 15.6238 99.1973 15.8136L99.463 14.4849C100.222 14.333 101.057 14.2191 101.969 14.2191C102.234 14.2191 102.462 14.2191 102.652 14.2191C102.842 14.2191 103.07 14.2571 103.335 14.295C103.601 14.333 103.829 14.371 104.019 14.4849C104.208 14.5608 104.398 14.6747 104.55 14.7886C104.702 14.9025 104.854 15.0923 104.93 15.2821C105.006 15.4719 105.082 15.7376 105.082 16.0034C105.044 16.1173 105.006 16.3451 104.968 16.6108ZM102.386 20.2932L102.766 18.3951H101.665C101.133 18.3951 100.754 18.471 100.526 18.5849C100.26 18.7367 100.07 19.0025 100.032 19.3821L99.9945 19.6479C99.9945 19.7997 100.032 19.9516 100.108 20.0655C100.184 20.1794 100.298 20.2553 100.45 20.2932C100.602 20.3312 100.754 20.3692 100.83 20.3692C100.944 20.3692 101.095 20.3692 101.285 20.3692C101.627 20.3692 102.007 20.3692 102.386 20.2932ZM97.7167 18.471H92.7435L92.7056 18.8127C92.7056 19.8756 93.3889 20.4071 94.7935 20.4071C95.325 20.4071 96.0084 20.3312 96.8435 20.1794L96.6158 21.3942C95.9704 21.584 95.1352 21.6599 94.1102 21.6599C93.0852 21.6599 92.2879 21.4321 91.6805 21.0145C91.0731 20.5969 90.7694 19.9136 90.7694 18.9645C90.7694 17.6358 91.1491 16.4969 91.9463 15.5858C92.7435 14.6747 93.8065 14.2571 95.0972 14.2571C96.0084 14.2571 96.7297 14.4469 97.1852 14.8265C97.6787 15.2062 97.9065 15.8515 97.9065 16.7627C97.9065 17.2182 97.8306 17.7877 97.7167 18.471ZM92.9713 17.2562H95.8945C95.9324 16.9525 95.9704 16.7627 95.9704 16.6108C95.9704 15.8515 95.5908 15.4719 94.7935 15.4719C94.3 15.4719 93.8824 15.6238 93.5787 15.9654C93.275 16.3071 93.0852 16.7627 92.9713 17.2562Z" fill="black"/>
</svg>
