<svg width="168" height="40" viewBox="0 0 168 40" fill="none" xmlns="http://www.w3.org/2000/svg">
<g clip-path="url(#clip0_21_31)">
<path d="M14.244 0.935557L0.00341797 15.1761L14.8769 30.0496L19.184 25.7425L7.59188 14.1504L13.2183 8.52402L24.8104 20.1161L29.1175 15.809L14.244 0.935557Z" fill="#53606C"/>
<path d="M33.0276 9.49508C39.8086 16.2761 39.8086 27.2038 33.0276 33.9849C26.2466 40.7659 15.3188 40.7659 8.5378 33.9849C1.75677 27.2038 1.75677 16.2761 8.5378 9.49508C15.2701 2.71404 26.2466 2.71404 33.0276 9.49508Z" fill="#37C871"/>
<path d="M8.53778 9.49507C6.00099 12.0319 4.29354 15.3492 3.70813 18.9105L18.3922 33.5946L22.6853 29.3015L8.97686 15.5931L14.6358 9.93412L28.3443 23.6425L32.6373 19.3495L17.9532 4.66541C14.3919 5.25082 11.0746 6.95828 8.53778 9.49507Z" fill="white"/>
</g>
<path d="M49.7501 14.8633C51.5052 14.8633 52.9585 15.437 54.1099 16.5843C55.2725 17.7207 55.8538 19.1358 55.8538 20.8295C55.8538 22.5232 55.2725 23.9437 54.1099 25.0911C52.9585 26.2275 51.5052 26.7957 49.7501 26.7957C48.688 26.7957 47.7099 26.5607 46.8156 26.0909C45.9212 25.6101 45.2225 24.9599 44.7195 24.1404L47.0335 22.8291C47.2795 23.2662 47.6428 23.6104 48.1235 23.8618C48.6154 24.1131 49.1576 24.2387 49.7501 24.2387C50.555 24.2387 51.2369 24.0475 51.7958 23.6651C52.366 23.2717 52.7628 22.7363 52.9864 22.0588H48.1906V19.6002H52.9864C52.7628 18.9227 52.366 18.3927 51.7958 18.0103C51.2369 17.6169 50.555 17.4202 49.7501 17.4202C49.1576 17.4202 48.621 17.5459 48.1403 17.7972C47.6596 18.0376 47.2907 18.3818 47.0335 18.8298L44.7195 17.5186C45.2337 16.699 45.938 16.0543 46.8323 15.5845C47.7266 15.1037 48.6992 14.8633 49.7501 14.8633Z" fill="#53606C"/>
<path d="M64.2339 15.0928H66.9169V26.5662H64.2339V22.0096H60.5448V26.5662H57.8619V15.0928H60.5448V19.4854H64.2339V15.0928Z" fill="#53606C"/>
<path d="M78.6575 24.0421H79.9152V28.7626H77.2322V26.5662H71.3632V28.7626H68.6802V24.0421H69.8708C70.4856 23.1788 70.7931 21.9113 70.7931 20.2394V15.0928H78.6575V24.0421ZM72.7215 24.0421H75.9746V17.5513H73.476V20.2722C73.476 21.9003 73.2245 23.157 72.7215 24.0421Z" fill="#53606C"/>
<path d="M91.6062 25.0747C90.4212 26.222 88.9791 26.7957 87.2799 26.7957C85.5807 26.7957 84.1385 26.222 82.9536 25.0747C81.7686 23.9273 81.1761 22.5123 81.1761 20.8295C81.1761 19.1467 81.7686 17.7316 82.9536 16.5843C84.1385 15.437 85.5807 14.8633 87.2799 14.8633C88.9791 14.8633 90.4212 15.437 91.6062 16.5843C92.7911 17.7316 93.3836 19.1467 93.3836 20.8295C93.3836 22.5123 92.7911 23.9273 91.6062 25.0747ZM84.8316 23.2881C85.4912 23.9219 86.3073 24.2387 87.2799 24.2387C88.2524 24.2387 89.0629 23.9219 89.7113 23.2881C90.3709 22.6543 90.7007 21.8348 90.7007 20.8295C90.7007 19.8242 90.3709 19.0047 89.7113 18.3709C89.0629 17.7371 88.2524 17.4202 87.2799 17.4202C86.3073 17.4202 85.4912 17.7371 84.8316 18.3709C84.1833 19.0047 83.8591 19.8242 83.8591 20.8295C83.8591 21.8348 84.1833 22.6543 84.8316 23.2881Z" fill="#53606C"/>
<path d="M104.285 15.0928V26.5662H101.602V17.6169H98.0803V26.5662H95.3973V15.0928H104.285Z" fill="#53606C"/>
<path d="M111.25 15.0928C112.402 15.0928 113.374 15.4752 114.168 16.2401C114.962 17.005 115.358 17.9338 115.358 19.0265C115.358 20.1192 114.962 21.048 114.168 21.8129C113.374 22.5778 112.402 22.9603 111.25 22.9603H109.489V26.5662H106.806V15.0928H111.25ZM111.25 20.5017C111.664 20.5017 112.005 20.3596 112.273 20.0755C112.541 19.7914 112.675 19.4417 112.675 19.0265C112.675 18.6113 112.541 18.2616 112.273 17.9775C112.005 17.6934 111.664 17.5513 111.25 17.5513H109.489V20.5017H111.25Z" fill="#53606C"/>
<path d="M127.046 25.0747C125.861 26.222 124.418 26.7957 122.719 26.7957C121.02 26.7957 119.578 26.222 118.393 25.0747C117.208 23.9273 116.615 22.5123 116.615 20.8295C116.615 19.1467 117.208 17.7316 118.393 16.5843C119.578 15.437 121.02 14.8633 122.719 14.8633C124.418 14.8633 125.861 15.437 127.046 16.5843C128.231 17.7316 128.823 19.1467 128.823 20.8295C128.823 22.5123 128.231 23.9273 127.046 25.0747ZM120.271 23.2881C120.931 23.9219 121.747 24.2387 122.719 24.2387C123.692 24.2387 124.502 23.9219 125.151 23.2881C125.81 22.6543 126.14 21.8348 126.14 20.8295C126.14 19.8242 125.81 19.0047 125.151 18.3709C124.502 17.7371 123.692 17.4202 122.719 17.4202C121.747 17.4202 120.931 17.7371 120.271 18.3709C119.623 19.0047 119.298 19.8242 119.298 20.8295C119.298 21.8348 119.623 22.6543 120.271 23.2881Z" fill="#53606C"/>
<path d="M138.047 15.0928V17.6169H135.028V26.5662H132.345V17.6169H129.327V15.0928H138.047Z" fill="#53606C"/>
<path d="M142.407 24.0421H147.102V26.5662H139.724V15.0928H147.018V17.6169H142.407V19.5182H146.599V22.0096H142.407V24.0421Z" fill="#53606C"/>
<path d="M158.61 26.5662H155.558L151.802 21.2556V26.5662H149.119V15.0928H151.802V20.0755L155.39 15.0928H158.442L154.485 20.682L158.61 26.5662Z" fill="#53606C"/>
<path d="M168 15.0928V17.6169H164.982V26.5662H162.299V17.6169H159.28V15.0928H168Z" fill="#53606C"/>
<defs>
<clipPath id="clip0_21_31">
<rect width="38.0719" height="38.0719" fill="white" transform="translate(0 0.963989)"/>
</clipPath>
</defs>
</svg>
